<mxfile host="app.diagrams.net" modified="2024-01-14T17:38:08.528Z" agent="Mozilla/5.0 (Windows NT 10.0; Win64; x64) AppleWebKit/537.36 (KHTML, like Gecko) Chrome/120.0.0.0 Safari/537.36" etag="fYR4I8Xbd9ee0fieVLGj" version="22.1.18" type="github">
  <diagram name="Page-1" id="pVeETceGo-HUL4zxsxZ8">
    <mxGraphModel dx="295" dy="460" grid="1" gridSize="10" guides="1" tooltips="1" connect="1" arrows="1" fold="1" page="1" pageScale="1" pageWidth="827" pageHeight="1169" math="0" shadow="0">
      <root>
        <mxCell id="0" />
        <mxCell id="1" parent="0" />
        <mxCell id="WM3kUZOGQEFrv92VMm_x-55" style="edgeStyle=orthogonalEdgeStyle;rounded=0;orthogonalLoop=1;jettySize=auto;html=1;exitX=0.25;exitY=1;exitDx=0;exitDy=0;entryX=0.25;entryY=0;entryDx=0;entryDy=0;" edge="1" parent="1" source="WM3kUZOGQEFrv92VMm_x-1" target="WM3kUZOGQEFrv92VMm_x-54">
          <mxGeometry relative="1" as="geometry" />
        </mxCell>
        <mxCell id="WM3kUZOGQEFrv92VMm_x-1" value="client" style="rounded=1;whiteSpace=wrap;html=1;" vertex="1" parent="1">
          <mxGeometry x="350" y="30" width="80" height="20" as="geometry" />
        </mxCell>
        <mxCell id="WM3kUZOGQEFrv92VMm_x-11" style="edgeStyle=orthogonalEdgeStyle;rounded=0;orthogonalLoop=1;jettySize=auto;html=1;exitX=0.25;exitY=1;exitDx=0;exitDy=0;entryX=0.25;entryY=0;entryDx=0;entryDy=0;" edge="1" parent="1" source="WM3kUZOGQEFrv92VMm_x-2" target="WM3kUZOGQEFrv92VMm_x-6">
          <mxGeometry relative="1" as="geometry" />
        </mxCell>
        <mxCell id="WM3kUZOGQEFrv92VMm_x-17" style="edgeStyle=orthogonalEdgeStyle;rounded=0;orthogonalLoop=1;jettySize=auto;html=1;exitX=1;exitY=0.25;exitDx=0;exitDy=0;entryX=0;entryY=0.25;entryDx=0;entryDy=0;" edge="1" parent="1" source="WM3kUZOGQEFrv92VMm_x-2" target="WM3kUZOGQEFrv92VMm_x-7">
          <mxGeometry relative="1" as="geometry" />
        </mxCell>
        <mxCell id="WM3kUZOGQEFrv92VMm_x-77" style="edgeStyle=orthogonalEdgeStyle;rounded=0;orthogonalLoop=1;jettySize=auto;html=1;exitX=0.75;exitY=0;exitDx=0;exitDy=0;entryX=0.75;entryY=1;entryDx=0;entryDy=0;" edge="1" parent="1" source="WM3kUZOGQEFrv92VMm_x-2" target="WM3kUZOGQEFrv92VMm_x-73">
          <mxGeometry relative="1" as="geometry" />
        </mxCell>
        <mxCell id="WM3kUZOGQEFrv92VMm_x-2" value="Apache" style="rounded=1;whiteSpace=wrap;html=1;" vertex="1" parent="1">
          <mxGeometry x="350" y="200" width="80" height="20" as="geometry" />
        </mxCell>
        <mxCell id="WM3kUZOGQEFrv92VMm_x-3" value="apache modules" style="rounded=1;whiteSpace=wrap;html=1;" vertex="1" parent="1">
          <mxGeometry x="220" y="110" width="70" height="40" as="geometry" />
        </mxCell>
        <mxCell id="WM3kUZOGQEFrv92VMm_x-4" value="APT" style="rounded=1;whiteSpace=wrap;html=1;" vertex="1" parent="1">
          <mxGeometry x="230" y="30" width="50" height="20" as="geometry" />
        </mxCell>
        <mxCell id="WM3kUZOGQEFrv92VMm_x-12" style="edgeStyle=orthogonalEdgeStyle;rounded=0;orthogonalLoop=1;jettySize=auto;html=1;exitX=0.75;exitY=0;exitDx=0;exitDy=0;entryX=0.75;entryY=1;entryDx=0;entryDy=0;" edge="1" parent="1" source="WM3kUZOGQEFrv92VMm_x-6" target="WM3kUZOGQEFrv92VMm_x-2">
          <mxGeometry relative="1" as="geometry" />
        </mxCell>
        <mxCell id="WM3kUZOGQEFrv92VMm_x-21" style="edgeStyle=orthogonalEdgeStyle;rounded=0;orthogonalLoop=1;jettySize=auto;html=1;exitX=1;exitY=0.25;exitDx=0;exitDy=0;entryX=0;entryY=0.25;entryDx=0;entryDy=0;" edge="1" parent="1" source="WM3kUZOGQEFrv92VMm_x-6" target="WM3kUZOGQEFrv92VMm_x-19">
          <mxGeometry relative="1" as="geometry" />
        </mxCell>
        <mxCell id="WM3kUZOGQEFrv92VMm_x-36" style="edgeStyle=orthogonalEdgeStyle;rounded=0;orthogonalLoop=1;jettySize=auto;html=1;exitX=0;exitY=0.25;exitDx=0;exitDy=0;entryX=1;entryY=0.25;entryDx=0;entryDy=0;" edge="1" parent="1" source="WM3kUZOGQEFrv92VMm_x-6" target="WM3kUZOGQEFrv92VMm_x-35">
          <mxGeometry relative="1" as="geometry" />
        </mxCell>
        <mxCell id="WM3kUZOGQEFrv92VMm_x-71" style="edgeStyle=orthogonalEdgeStyle;rounded=0;orthogonalLoop=1;jettySize=auto;html=1;exitX=0.25;exitY=1;exitDx=0;exitDy=0;entryX=0.25;entryY=0;entryDx=0;entryDy=0;" edge="1" parent="1" source="WM3kUZOGQEFrv92VMm_x-6" target="WM3kUZOGQEFrv92VMm_x-8">
          <mxGeometry relative="1" as="geometry" />
        </mxCell>
        <mxCell id="WM3kUZOGQEFrv92VMm_x-6" value="PHP" style="rounded=1;whiteSpace=wrap;html=1;" vertex="1" parent="1">
          <mxGeometry x="350" y="285" width="80" height="20" as="geometry" />
        </mxCell>
        <mxCell id="WM3kUZOGQEFrv92VMm_x-14" style="edgeStyle=orthogonalEdgeStyle;rounded=0;orthogonalLoop=1;jettySize=auto;html=1;exitX=0;exitY=0.75;exitDx=0;exitDy=0;entryX=1;entryY=0.75;entryDx=0;entryDy=0;" edge="1" parent="1" source="WM3kUZOGQEFrv92VMm_x-7" target="WM3kUZOGQEFrv92VMm_x-2">
          <mxGeometry relative="1" as="geometry" />
        </mxCell>
        <mxCell id="WM3kUZOGQEFrv92VMm_x-23" style="edgeStyle=orthogonalEdgeStyle;rounded=0;orthogonalLoop=1;jettySize=auto;html=1;exitX=0.25;exitY=1;exitDx=0;exitDy=0;entryX=0.25;entryY=0;entryDx=0;entryDy=0;" edge="1" parent="1" source="WM3kUZOGQEFrv92VMm_x-7" target="WM3kUZOGQEFrv92VMm_x-19">
          <mxGeometry relative="1" as="geometry" />
        </mxCell>
        <mxCell id="WM3kUZOGQEFrv92VMm_x-7" value="config.inc.php" style="rounded=1;whiteSpace=wrap;html=1;" vertex="1" parent="1">
          <mxGeometry x="550" y="200" width="100" height="20" as="geometry" />
        </mxCell>
        <mxCell id="WM3kUZOGQEFrv92VMm_x-26" style="edgeStyle=orthogonalEdgeStyle;rounded=0;orthogonalLoop=1;jettySize=auto;html=1;exitX=1;exitY=0.75;exitDx=0;exitDy=0;entryX=0.33;entryY=1.074;entryDx=0;entryDy=0;entryPerimeter=0;" edge="1" parent="1" source="WM3kUZOGQEFrv92VMm_x-8" target="WM3kUZOGQEFrv92VMm_x-19">
          <mxGeometry relative="1" as="geometry" />
        </mxCell>
        <mxCell id="WM3kUZOGQEFrv92VMm_x-44" style="edgeStyle=orthogonalEdgeStyle;rounded=0;orthogonalLoop=1;jettySize=auto;html=1;exitX=0;exitY=0.25;exitDx=0;exitDy=0;entryX=0.75;entryY=1;entryDx=0;entryDy=0;" edge="1" parent="1" source="WM3kUZOGQEFrv92VMm_x-8" target="WM3kUZOGQEFrv92VMm_x-35">
          <mxGeometry relative="1" as="geometry" />
        </mxCell>
        <mxCell id="WM3kUZOGQEFrv92VMm_x-72" style="edgeStyle=orthogonalEdgeStyle;rounded=0;orthogonalLoop=1;jettySize=auto;html=1;exitX=0.75;exitY=0;exitDx=0;exitDy=0;entryX=0.75;entryY=1;entryDx=0;entryDy=0;" edge="1" parent="1" source="WM3kUZOGQEFrv92VMm_x-8" target="WM3kUZOGQEFrv92VMm_x-6">
          <mxGeometry relative="1" as="geometry" />
        </mxCell>
        <mxCell id="WM3kUZOGQEFrv92VMm_x-8" value="MySQL" style="rounded=1;whiteSpace=wrap;html=1;" vertex="1" parent="1">
          <mxGeometry x="350" y="370" width="80" height="30" as="geometry" />
        </mxCell>
        <mxCell id="WM3kUZOGQEFrv92VMm_x-18" value="" style="endArrow=none;dashed=1;html=1;rounded=0;" edge="1" parent="1">
          <mxGeometry width="50" height="50" relative="1" as="geometry">
            <mxPoint x="540" y="180" as="sourcePoint" />
            <mxPoint x="540" y="180" as="targetPoint" />
            <Array as="points">
              <mxPoint x="660" y="180" />
              <mxPoint x="660" y="240" />
              <mxPoint x="540" y="240" />
            </Array>
          </mxGeometry>
        </mxCell>
        <mxCell id="WM3kUZOGQEFrv92VMm_x-22" style="edgeStyle=orthogonalEdgeStyle;rounded=0;orthogonalLoop=1;jettySize=auto;html=1;exitX=0;exitY=0.75;exitDx=0;exitDy=0;entryX=1;entryY=0.75;entryDx=0;entryDy=0;" edge="1" parent="1" source="WM3kUZOGQEFrv92VMm_x-19" target="WM3kUZOGQEFrv92VMm_x-6">
          <mxGeometry relative="1" as="geometry" />
        </mxCell>
        <mxCell id="WM3kUZOGQEFrv92VMm_x-24" style="edgeStyle=orthogonalEdgeStyle;rounded=0;orthogonalLoop=1;jettySize=auto;html=1;exitX=0.75;exitY=0;exitDx=0;exitDy=0;entryX=0.75;entryY=1;entryDx=0;entryDy=0;" edge="1" parent="1" source="WM3kUZOGQEFrv92VMm_x-19" target="WM3kUZOGQEFrv92VMm_x-7">
          <mxGeometry relative="1" as="geometry" />
        </mxCell>
        <mxCell id="WM3kUZOGQEFrv92VMm_x-25" style="edgeStyle=orthogonalEdgeStyle;rounded=0;orthogonalLoop=1;jettySize=auto;html=1;exitX=0.25;exitY=1;exitDx=0;exitDy=0;entryX=1;entryY=0.25;entryDx=0;entryDy=0;" edge="1" parent="1" source="WM3kUZOGQEFrv92VMm_x-19" target="WM3kUZOGQEFrv92VMm_x-8">
          <mxGeometry relative="1" as="geometry">
            <Array as="points">
              <mxPoint x="570" y="305" />
              <mxPoint x="570" y="378" />
            </Array>
          </mxGeometry>
        </mxCell>
        <mxCell id="WM3kUZOGQEFrv92VMm_x-30" style="edgeStyle=orthogonalEdgeStyle;rounded=0;orthogonalLoop=1;jettySize=auto;html=1;exitX=0.5;exitY=1;exitDx=0;exitDy=0;entryX=0.5;entryY=0;entryDx=0;entryDy=0;" edge="1" parent="1" source="WM3kUZOGQEFrv92VMm_x-19" target="WM3kUZOGQEFrv92VMm_x-29">
          <mxGeometry relative="1" as="geometry">
            <mxPoint x="623" y="310" as="sourcePoint" />
            <mxPoint x="600" y="430" as="targetPoint" />
          </mxGeometry>
        </mxCell>
        <mxCell id="WM3kUZOGQEFrv92VMm_x-53" style="edgeStyle=orthogonalEdgeStyle;rounded=0;orthogonalLoop=1;jettySize=auto;html=1;exitX=1;exitY=0.25;exitDx=0;exitDy=0;entryX=1;entryY=0.5;entryDx=0;entryDy=0;" edge="1" parent="1" source="WM3kUZOGQEFrv92VMm_x-19" target="WM3kUZOGQEFrv92VMm_x-52">
          <mxGeometry relative="1" as="geometry" />
        </mxCell>
        <mxCell id="WM3kUZOGQEFrv92VMm_x-19" value="terminal" style="rounded=1;whiteSpace=wrap;html=1;" vertex="1" parent="1">
          <mxGeometry x="550" y="285" width="100" height="20" as="geometry" />
        </mxCell>
        <mxCell id="WM3kUZOGQEFrv92VMm_x-27" value="" style="endArrow=classic;startArrow=classic;html=1;rounded=0;exitX=1;exitY=0.5;exitDx=0;exitDy=0;entryX=0;entryY=0;entryDx=0;entryDy=0;" edge="1" parent="1" source="WM3kUZOGQEFrv92VMm_x-3" target="WM3kUZOGQEFrv92VMm_x-2">
          <mxGeometry width="50" height="50" relative="1" as="geometry">
            <mxPoint x="350" y="330" as="sourcePoint" />
            <mxPoint x="400" y="280" as="targetPoint" />
          </mxGeometry>
        </mxCell>
        <mxCell id="WM3kUZOGQEFrv92VMm_x-28" value="" style="endArrow=classic;startArrow=classic;html=1;rounded=0;entryX=0.5;entryY=1;entryDx=0;entryDy=0;exitX=0.5;exitY=0;exitDx=0;exitDy=0;" edge="1" parent="1" source="WM3kUZOGQEFrv92VMm_x-3" target="WM3kUZOGQEFrv92VMm_x-4">
          <mxGeometry width="50" height="50" relative="1" as="geometry">
            <mxPoint x="290" y="180" as="sourcePoint" />
            <mxPoint x="340" y="130" as="targetPoint" />
          </mxGeometry>
        </mxCell>
        <mxCell id="WM3kUZOGQEFrv92VMm_x-31" style="edgeStyle=orthogonalEdgeStyle;rounded=0;orthogonalLoop=1;jettySize=auto;html=1;exitX=0.75;exitY=0;exitDx=0;exitDy=0;entryX=0.75;entryY=1;entryDx=0;entryDy=0;" edge="1" parent="1" source="WM3kUZOGQEFrv92VMm_x-29" target="WM3kUZOGQEFrv92VMm_x-19">
          <mxGeometry relative="1" as="geometry">
            <mxPoint x="620" y="430" as="sourcePoint" />
            <mxPoint x="650" y="330" as="targetPoint" />
            <Array as="points">
              <mxPoint x="625" y="440" />
            </Array>
          </mxGeometry>
        </mxCell>
        <mxCell id="WM3kUZOGQEFrv92VMm_x-29" value="GNOME" style="rounded=1;whiteSpace=wrap;html=1;" vertex="1" parent="1">
          <mxGeometry x="546.25" y="440" width="107.5" height="20" as="geometry" />
        </mxCell>
        <mxCell id="WM3kUZOGQEFrv92VMm_x-33" value="admin" style="rounded=1;whiteSpace=wrap;html=1;" vertex="1" parent="1">
          <mxGeometry x="570" y="530" width="60" height="40" as="geometry" />
        </mxCell>
        <mxCell id="WM3kUZOGQEFrv92VMm_x-34" value="" style="endArrow=classic;startArrow=classic;html=1;rounded=0;entryX=0.5;entryY=1;entryDx=0;entryDy=0;exitX=0.5;exitY=0;exitDx=0;exitDy=0;" edge="1" parent="1" source="WM3kUZOGQEFrv92VMm_x-33" target="WM3kUZOGQEFrv92VMm_x-29">
          <mxGeometry width="50" height="50" relative="1" as="geometry">
            <mxPoint x="470" y="560" as="sourcePoint" />
            <mxPoint x="520" y="510" as="targetPoint" />
          </mxGeometry>
        </mxCell>
        <mxCell id="WM3kUZOGQEFrv92VMm_x-37" style="edgeStyle=orthogonalEdgeStyle;rounded=0;orthogonalLoop=1;jettySize=auto;html=1;exitX=1;exitY=0.75;exitDx=0;exitDy=0;entryX=0;entryY=0.75;entryDx=0;entryDy=0;" edge="1" parent="1" source="WM3kUZOGQEFrv92VMm_x-35" target="WM3kUZOGQEFrv92VMm_x-6">
          <mxGeometry relative="1" as="geometry" />
        </mxCell>
        <mxCell id="WM3kUZOGQEFrv92VMm_x-43" style="edgeStyle=orthogonalEdgeStyle;rounded=0;orthogonalLoop=1;jettySize=auto;html=1;exitX=0.25;exitY=1;exitDx=0;exitDy=0;entryX=0;entryY=0.75;entryDx=0;entryDy=0;" edge="1" parent="1" source="WM3kUZOGQEFrv92VMm_x-35" target="WM3kUZOGQEFrv92VMm_x-8">
          <mxGeometry relative="1" as="geometry" />
        </mxCell>
        <mxCell id="WM3kUZOGQEFrv92VMm_x-35" value="WebSocket" style="rounded=1;whiteSpace=wrap;html=1;" vertex="1" parent="1">
          <mxGeometry x="172.5" y="285" width="90" height="20" as="geometry" />
        </mxCell>
        <mxCell id="WM3kUZOGQEFrv92VMm_x-38" value="AWS IAM" style="rounded=1;whiteSpace=wrap;html=1;" vertex="1" parent="1">
          <mxGeometry x="165" y="195" width="105" height="30" as="geometry" />
        </mxCell>
        <mxCell id="WM3kUZOGQEFrv92VMm_x-41" value="" style="endArrow=classic;startArrow=classic;html=1;rounded=0;exitX=1;exitY=0.5;exitDx=0;exitDy=0;entryX=0;entryY=0.5;entryDx=0;entryDy=0;" edge="1" parent="1" source="WM3kUZOGQEFrv92VMm_x-38" target="WM3kUZOGQEFrv92VMm_x-2">
          <mxGeometry width="50" height="50" relative="1" as="geometry">
            <mxPoint x="310" y="300" as="sourcePoint" />
            <mxPoint x="360" y="250" as="targetPoint" />
          </mxGeometry>
        </mxCell>
        <mxCell id="WM3kUZOGQEFrv92VMm_x-45" value="Google Analitics" style="rounded=1;whiteSpace=wrap;html=1;" vertex="1" parent="1">
          <mxGeometry x="205" y="240" width="100" height="30" as="geometry" />
        </mxCell>
        <mxCell id="WM3kUZOGQEFrv92VMm_x-46" value="" style="endArrow=classic;startArrow=classic;html=1;rounded=0;exitX=1;exitY=0.5;exitDx=0;exitDy=0;entryX=0;entryY=0;entryDx=0;entryDy=0;" edge="1" parent="1" source="WM3kUZOGQEFrv92VMm_x-45" target="WM3kUZOGQEFrv92VMm_x-6">
          <mxGeometry width="50" height="50" relative="1" as="geometry">
            <mxPoint x="370" y="390" as="sourcePoint" />
            <mxPoint x="350" y="280" as="targetPoint" />
          </mxGeometry>
        </mxCell>
        <mxCell id="WM3kUZOGQEFrv92VMm_x-47" value="" style="endArrow=none;dashed=1;html=1;dashPattern=1 3;strokeWidth=2;rounded=0;" edge="1" parent="1">
          <mxGeometry width="50" height="50" relative="1" as="geometry">
            <mxPoint x="690" y="90" as="sourcePoint" />
            <mxPoint x="690" y="90" as="targetPoint" />
            <Array as="points">
              <mxPoint x="140" y="90" />
              <mxPoint x="140" y="500" />
              <mxPoint x="690" y="500" />
            </Array>
          </mxGeometry>
        </mxCell>
        <mxCell id="WM3kUZOGQEFrv92VMm_x-50" value="" style="endArrow=classic;startArrow=classic;html=1;rounded=0;exitX=0.5;exitY=1;exitDx=0;exitDy=0;entryX=0;entryY=0.5;entryDx=0;entryDy=0;" edge="1" parent="1">
          <mxGeometry width="50" height="50" relative="1" as="geometry">
            <mxPoint x="392.5" y="400" as="sourcePoint" />
            <mxPoint x="207.5" y="255" as="targetPoint" />
            <Array as="points">
              <mxPoint x="392.5" y="430" />
              <mxPoint x="160" y="430" />
              <mxPoint x="160" y="255" />
            </Array>
          </mxGeometry>
        </mxCell>
        <mxCell id="WM3kUZOGQEFrv92VMm_x-51" value="" style="endArrow=classic;startArrow=classic;html=1;rounded=0;" edge="1" parent="1">
          <mxGeometry width="50" height="50" relative="1" as="geometry">
            <mxPoint x="430" y="200" as="sourcePoint" />
            <mxPoint x="480" y="150" as="targetPoint" />
          </mxGeometry>
        </mxCell>
        <mxCell id="WM3kUZOGQEFrv92VMm_x-52" value="domen`s file system" style="rounded=1;whiteSpace=wrap;html=1;" vertex="1" parent="1">
          <mxGeometry x="480" y="120" width="80" height="30" as="geometry" />
        </mxCell>
        <mxCell id="WM3kUZOGQEFrv92VMm_x-56" style="edgeStyle=orthogonalEdgeStyle;rounded=0;orthogonalLoop=1;jettySize=auto;html=1;exitX=0.75;exitY=0;exitDx=0;exitDy=0;entryX=0.75;entryY=1;entryDx=0;entryDy=0;" edge="1" parent="1" source="WM3kUZOGQEFrv92VMm_x-54" target="WM3kUZOGQEFrv92VMm_x-1">
          <mxGeometry relative="1" as="geometry" />
        </mxCell>
        <mxCell id="WM3kUZOGQEFrv92VMm_x-54" value="APT Firewall" style="rounded=1;whiteSpace=wrap;html=1;fillColor=#d5e8d4;strokeColor=#82b366;" vertex="1" parent="1">
          <mxGeometry x="350" y="110" width="80" height="25" as="geometry" />
        </mxCell>
        <mxCell id="WM3kUZOGQEFrv92VMm_x-75" style="edgeStyle=orthogonalEdgeStyle;rounded=0;orthogonalLoop=1;jettySize=auto;html=1;exitX=0.75;exitY=0;exitDx=0;exitDy=0;entryX=0.75;entryY=1;entryDx=0;entryDy=0;" edge="1" parent="1" source="WM3kUZOGQEFrv92VMm_x-73" target="WM3kUZOGQEFrv92VMm_x-54">
          <mxGeometry relative="1" as="geometry" />
        </mxCell>
        <mxCell id="WM3kUZOGQEFrv92VMm_x-76" style="edgeStyle=orthogonalEdgeStyle;rounded=0;orthogonalLoop=1;jettySize=auto;html=1;exitX=0.25;exitY=1;exitDx=0;exitDy=0;entryX=0.25;entryY=0;entryDx=0;entryDy=0;" edge="1" parent="1" source="WM3kUZOGQEFrv92VMm_x-73" target="WM3kUZOGQEFrv92VMm_x-2">
          <mxGeometry relative="1" as="geometry" />
        </mxCell>
        <mxCell id="WM3kUZOGQEFrv92VMm_x-73" value="OWASP CRS" style="rounded=1;whiteSpace=wrap;html=1;fillColor=#d5e8d4;strokeColor=#82b366;" vertex="1" parent="1">
          <mxGeometry x="350" y="160" width="80" height="20" as="geometry" />
        </mxCell>
        <mxCell id="WM3kUZOGQEFrv92VMm_x-74" style="edgeStyle=orthogonalEdgeStyle;rounded=0;orthogonalLoop=1;jettySize=auto;html=1;exitX=0.25;exitY=1;exitDx=0;exitDy=0;entryX=0.25;entryY=0;entryDx=0;entryDy=0;" edge="1" parent="1" source="WM3kUZOGQEFrv92VMm_x-54" target="WM3kUZOGQEFrv92VMm_x-73">
          <mxGeometry relative="1" as="geometry" />
        </mxCell>
      </root>
    </mxGraphModel>
  </diagram>
</mxfile>
